<svg width="34" height="34" viewBox="0 0 34 34" fill="none" xmlns="http://www.w3.org/2000/svg">
<rect width="34" height="34" rx="17" fill="white"/>
<path d="M25.8238 14.502H23.6413C23.3621 14.502 23.1357 14.7358 23.1357 15.0243V17.2796C23.1357 17.5681 23.3621 17.802 23.6413 17.802H25.8238C26.103 17.802 26.3293 17.5681 26.3293 17.2796V15.0243C26.3293 14.7358 26.103 14.502 25.8238 14.502Z" fill="#FF4C00"/>
<path d="M31.4981 10.6236C31.4993 10.6233 31.4991 10.6216 31.4979 10.6216H29.8162C29.5335 10.6216 29.304 10.3971 29.304 10.1205V8.50106C29.304 8.22448 29.0746 8 28.7919 8H20.9374C20.6547 8 20.4253 8.22448 20.4253 8.50106V10.1405C20.4253 10.4171 20.1958 10.6416 19.9131 10.6416H18.2169C17.9342 10.6416 17.7047 10.8661 17.7047 11.1427V12.7982C17.7047 13.0747 17.4753 13.2992 17.1926 13.2992H15.5127C15.23 13.2992 15.0005 13.5237 15.0005 13.8003V19.1877C15.0005 19.4643 14.7711 19.6888 14.4884 19.6888H12.8003C12.5176 19.6888 12.2882 19.9132 12.2882 20.1898V21.8373C12.2882 22.1139 12.0587 22.3384 11.776 22.3384H5.25731C4.9746 22.3384 4.74515 22.1139 4.74515 21.8373V11.1988C4.74515 10.9222 4.9746 10.6977 5.25731 10.6977H11.776C12.0587 10.6977 12.2882 10.4732 12.2882 10.1967V8.53714C12.2882 8.26055 12.0587 8.03608 11.776 8.03608H5.23272C4.95001 8.03608 4.72057 8.26055 4.72057 8.53714V10.1766C4.72057 10.4532 4.49112 10.6777 4.20841 10.6777H2.51216C2.22945 10.6777 2 10.9021 2 11.1787V21.8814C2 22.158 2.22945 22.3825 2.51216 22.3825H4.20432C4.48703 22.3825 4.71647 22.6069 4.71647 22.8835V24.4989C4.71647 24.7755 4.94592 25 5.22863 25H11.7678C12.0505 25 12.28 24.7755 12.28 24.4989V22.8675C12.28 22.5909 12.5094 22.3664 12.7921 22.3664H14.4884C14.7711 22.3664 15.0005 22.1419 15.0005 21.8654V20.2259C15.0005 19.9493 15.23 19.7248 15.5127 19.7248H17.1147C17.3974 19.7248 17.6269 19.9493 17.6269 20.2259V21.8814C17.6269 22.158 17.8563 22.3825 18.139 22.3825H19.9008C20.1836 22.3825 20.413 22.6069 20.413 22.8835V24.4629C20.413 24.7394 20.6424 24.9639 20.9252 24.9639H28.7714C29.0541 24.9639 29.2835 24.7394 29.2835 24.4629V22.8354C29.2835 22.5588 29.513 22.3344 29.7957 22.3344H31.4878C31.7706 22.3344 32 22.1099 32 21.8333V11.1266C32 10.8535 31.7762 10.6311 31.4983 10.6257C31.4971 10.6256 31.4969 10.6238 31.4981 10.6236V10.6236ZM20.9415 10.6616C20.9415 10.6594 20.9433 10.6576 20.9456 10.6576H28.7714C29.0541 10.6576 29.2835 10.8821 29.2835 11.1587V21.8092C29.2835 22.0858 29.0541 22.3103 28.7714 22.3103H20.9948C20.7121 22.3103 20.4827 22.0858 20.4827 21.8092V20.1618C20.4827 19.8852 20.2532 19.6607 19.9705 19.6607H18.2251C17.9424 19.6607 17.7129 19.4362 17.7129 19.1596V13.8203C17.7129 13.5437 17.9424 13.3193 18.2251 13.3193H19.9172C20.1999 13.3193 20.4294 13.0948 20.4294 12.8182V11.1667C20.4294 10.8914 20.6567 10.6678 20.9375 10.6657C20.9397 10.6656 20.9415 10.6639 20.9415 10.6616V10.6616Z" fill="#FF4C00"/>
</svg>
