<svg width="34" height="34" viewBox="0 0 34 34" fill="none" xmlns="http://www.w3.org/2000/svg">
<rect width="34" height="34" fill="white"/>
<path d="M26.8267 15.1733H24.369C24.0547 15.1733 23.7998 15.4282 23.7998 15.7426V18.2003C23.7998 18.5146 24.0547 18.7695 24.369 18.7695H26.8267C27.1411 18.7695 27.396 18.5146 27.396 18.2003V15.7426C27.396 15.4282 27.1411 15.1733 26.8267 15.1733Z" fill="black"/>
<path d="M33.4428 10.0249H31.525C31.2046 10.0249 30.9446 9.76586 30.9446 9.44672V7.57815C30.9446 7.25901 30.6845 7 30.3641 7H21.4624C21.142 7 20.882 7.25901 20.882 7.57815V9.46985C20.882 9.78898 20.622 10.048 20.3016 10.048H18.3791C18.0587 10.048 17.7987 10.307 17.7987 10.6261V12.5363C17.7987 12.8555 17.5387 13.1145 17.2182 13.1145H15.3144C14.994 13.1145 14.734 13.3735 14.734 13.6926V19.9089C14.734 20.228 14.4739 20.487 14.1535 20.487H12.2404C11.92 20.487 11.6599 20.746 11.6599 21.0652V22.9661C11.6599 23.2853 11.3999 23.5443 11.0795 23.5443H3.69161C3.37121 23.5443 3.11117 23.2853 3.11117 22.9661V10.6909C3.11117 10.3718 3.37121 10.1127 3.69161 10.1127H11.0795C11.3999 10.1127 11.6599 9.85374 11.6599 9.5346V7.61977C11.6599 7.30064 11.3999 7.04163 11.0795 7.04163H3.66375C3.34335 7.04163 3.08331 7.30064 3.08331 7.61977V9.51147C3.08331 9.83061 2.82327 10.0896 2.50287 10.0896H0.580443C0.260038 10.0896 0 10.3486 0 10.6678V23.017C0 23.3361 0.260038 23.5951 0.580443 23.5951H2.49822C2.81863 23.5951 3.07867 23.8542 3.07867 24.1733V26.0372C3.07867 26.3564 3.33871 26.6154 3.65911 26.6154H11.0702C11.3906 26.6154 11.6506 26.3564 11.6506 26.0372V24.1548C11.6506 23.8357 11.9107 23.5766 12.2311 23.5766H14.1535C14.4739 23.5766 14.734 23.3176 14.734 22.9985V21.1068C14.734 20.7877 14.994 20.5287 15.3144 20.5287H17.13C17.4504 20.5287 17.7105 20.7877 17.7105 21.1068V23.017C17.7105 23.3361 17.9705 23.5951 18.2909 23.5951H20.2876C20.608 23.5951 20.8681 23.8542 20.8681 24.1733V25.9956C20.8681 26.3148 21.1281 26.5738 21.4485 26.5738H30.3409C30.6613 26.5738 30.9213 26.3148 30.9213 25.9956V24.1178C30.9213 23.7987 31.1814 23.5396 31.5018 23.5396H33.4196C33.74 23.5396 34 23.2806 34 22.9615V10.6076C34 10.2885 33.74 10.0295 33.4196 10.0295L33.4428 10.0249ZM21.4671 10.0665H30.3409C30.6613 10.0665 30.9213 10.3255 30.9213 10.6446V22.9337C30.9213 23.2529 30.6613 23.5119 30.3409 23.5119H21.5275C21.207 23.5119 20.947 23.2529 20.947 22.9337V21.0328C20.947 20.7137 20.687 20.4546 20.3666 20.4546H18.3884C18.068 20.4546 17.808 20.1956 17.808 19.8765V13.7158C17.808 13.3966 18.068 13.1376 18.3884 13.1376H20.3062C20.6266 13.1376 20.8866 12.8786 20.8866 12.5595V10.6539C20.8866 10.3348 21.1467 10.0757 21.4671 10.0757V10.0665Z" fill="black"/>
</svg>
